<svg version="1.1" xmlns="http://www.w3.org/2000/svg" xmlns:xlink="http://www.w3.org/1999/xlink" width="92.18182" height="92.18182" viewBox="0,0,92.18182,92.18182"><g transform="translate(-273.90909,-133.90911)"><g data-paper-data="{&quot;isPaintingLayer&quot;:true}" fill-rule="nonzero" stroke-linejoin="miter" stroke-miterlimit="10" stroke-dasharray="" stroke-dashoffset="0" style="mix-blend-mode: normal"><path d="M276.90909,180.00002c0,-23.79845 19.29246,-43.09091 43.09091,-43.09091c23.79845,0 43.09091,19.29246 43.09091,43.09091c0,23.79845 -19.29246,43.09091 -43.09091,43.09091c-23.79845,0 -43.09091,-19.29246 -43.09091,-43.09091z" fill="#ffffff" stroke="#fdba31" stroke-width="6" stroke-linecap="butt"/><path d="M299.00222,171.89271v-14.09091" fill="none" stroke="#fdba31" stroke-width="6" stroke-linecap="round"/><path d="M291.95677,164.84726h14.09091" fill="none" stroke="#fdba31" stroke-width="6" stroke-linecap="round"/><g><g><path d="M345.65815,158.74556l-19.63763,1.5086" fill="none" stroke="#fdba31" stroke-width="6" stroke-linecap="round"/><path d="M345.73176,158.96907l1.5086,19.63762" fill="none" stroke="#fdba31" stroke-width="6" stroke-linecap="round"/><path d="M325.79952,160.51194l21.26706,18.23262" fill="none" stroke="#fdba31" stroke-width="6" stroke-linecap="round"/><path d="M299.29255,191.61757l21.26705,18.23261" fill="none" stroke="#fdba31" stroke-width="6" stroke-linecap="round"/><path d="M346.92155,179.22121l-25.69141,29.96722" fill="none" stroke="#fdba31" stroke-width="6" stroke-linecap="round"/><path d="M325.42601,160.95312l-25.69142,29.96723" fill="none" stroke="#fdba31" stroke-width="6" stroke-linecap="round"/><path d="M341.14402,174.47264c1.52348,1.50615 3.83655,3.05103 3.23261,5.46577c-1.83843,7.35057 -9.92373,12.69688 -14.57987,18.30075c-1.83177,2.20462 -5.00649,8.27888 -8.71282,9.60215c-1.97271,0.70432 -16.58464,-11.02947 -17.83432,-14.2223c-1.15596,-2.95338 1.92646,-6.11995 3.5658,-8.35771c4.96209,-6.77345 11.11342,-12.86589 16.67693,-19.20792c0.77863,-0.88759 4.75197,-4.68803 6.12847,-3.63458c0.20775,0.02778 0.41344,0.07803 0.6132,0.15104c0.04914,-0.54597 0.27671,-1.07779 0.48142,-1.47399c2.33575,-4.52069 6.37657,1.02019 9.40377,1.14327c1.27239,0.05173 2.18752,-0.76873 3.65789,0.35657c2.10331,1.60968 1.61637,10.51768 -3.33115,9.50894c-1.33349,-0.27188 -2.17756,-3.34083 -2.43139,-3.38953c-0.9457,0.32276 -2.03265,0.15134 -2.8462,-0.54614c-0.19769,-0.16948 -0.36715,-0.35966 -0.50792,-0.56459c-0.70044,-0.67933 -1.60603,-1.25471 -2.41949,-1.87984c2.04771,3.44409 5.89426,5.77357 8.90307,8.74813z" fill="#fdba31" stroke="none" stroke-width="0.5" stroke-linecap="butt"/><path d="M340.85014,159.34067c1.14427,-1.33471 3.15389,-1.48909 4.4886,-0.34482c1.33471,1.14427 1.48909,3.15389 0.34482,4.4886c-1.14427,1.33471 -3.15389,1.48909 -4.4886,0.34482c-1.33471,-1.14427 -1.48909,-3.15389 -0.34482,-4.4886z" fill="#ffffff" stroke="none" stroke-width="0" stroke-linecap="butt"/></g><path d="M325.41331,164.41702l-22.52513,26.27398" fill="none" stroke="#cf9727" stroke-width="4" stroke-linecap="round"/><path d="M322.63457,177.14619l-15.01675,17.51598" fill="none" stroke="#cf9727" stroke-width="4" stroke-linecap="round"/><path d="M330.18422,177.87784l-17.83067,20.79822" fill="none" stroke="#cf9727" stroke-width="4" stroke-linecap="round"/><path d="M325.05433,193.26691l-8.03047,9.36697" fill="none" stroke="#cf9727" stroke-width="4" stroke-linecap="round"/><path d="M341.70557,182.95022l-20.0624,23.40138" fill="none" stroke="#cf9727" stroke-width="4" stroke-linecap="round"/></g><path d="M341.12633,173.09992c0,-1.24264 1.00736,-2.25 2.25,-2.25c1.24264,0 2.25,1.00736 2.25,2.25c0,1.24264 -1.00736,2.25 -2.25,2.25c-1.24264,0 -2.25,-1.00736 -2.25,-2.25z" fill="#fdba31" stroke="none" stroke-width="0.5" stroke-linecap="butt"/></g></g></svg>