<svg version="1.1" xmlns="http://www.w3.org/2000/svg" xmlns:xlink="http://www.w3.org/1999/xlink" width="107.89744" height="92.18182" viewBox="0,0,107.89744,92.18182"><g transform="translate(-258.19347,-133.90911)"><g data-paper-data="{&quot;isPaintingLayer&quot;:true}" fill-rule="nonzero" stroke-linejoin="miter" stroke-miterlimit="10" stroke-dasharray="" stroke-dashoffset="0" style="mix-blend-mode: normal"><path d="M276.90909,180.00002c0,-23.79845 19.29246,-43.09091 43.09091,-43.09091c23.79845,0 43.09091,19.29246 43.09091,43.09091c0,23.79845 -19.29246,43.09091 -43.09091,43.09091c-23.79845,0 -43.09091,-19.29246 -43.09091,-43.09091z" fill="#ffffff" stroke="#fdba31" stroke-width="6" stroke-linecap="butt"/><path d="M261.15376,143.6235l-2.96029,-1.18411" fill="none" stroke="#000000" stroke-width="NaN" stroke-linecap="round"/><path d="M301.59257,173.39352v-12.31873" fill="none" stroke="#fdba31" stroke-width="6" stroke-linecap="round"/><path d="M295.4332,167.23416h12.31873" fill="none" stroke="#fdba31" stroke-width="6" stroke-linecap="round"/><g><g><path d="M342.38071,161.89985l-17.16786,1.31887" fill="none" stroke="#fdba31" stroke-width="6" stroke-linecap="round"/><path d="M342.44506,162.09525l1.31887,17.16785" fill="none" stroke="#fdba31" stroke-width="6" stroke-linecap="round"/><path d="M325.01964,163.44408l18.59236,15.93955" fill="none" stroke="#fdba31" stroke-width="6" stroke-linecap="round"/><path d="M301.84638,190.63764l18.59235,15.93954" fill="none" stroke="#fdba31" stroke-width="6" stroke-linecap="round"/><path d="M343.48521,179.80034l-22.46027,26.19832" fill="none" stroke="#fdba31" stroke-width="6" stroke-linecap="round"/><path d="M324.69311,163.82977l-22.46028,26.19833" fill="none" stroke="#fdba31" stroke-width="6" stroke-linecap="round"/><path d="M338.43431,175.64898c1.33188,1.31673 3.35404,2.66731 2.82605,4.77836c-1.60722,6.42611 -8.67565,11.10003 -12.7462,15.99911c-1.60139,1.92735 -4.37684,7.23767 -7.61703,8.39451c-1.72461,0.61574 -14.49884,-9.64232 -15.59135,-12.4336c-1.01058,-2.58194 1.68417,-5.35026 3.11734,-7.30658c4.33802,-5.92157 9.71572,-11.24778 14.57952,-16.79219c0.6807,-0.77596 4.15433,-4.09843 5.35771,-3.17747c0.18162,0.02429 0.36144,0.06822 0.53608,0.13204c0.04296,-0.4773 0.24191,-0.94224 0.42087,-1.28861c2.04199,-3.95214 5.57461,0.89188 8.22108,0.99948c1.11237,0.04522 1.9124,-0.67205 3.19785,0.31173c1.83878,1.40723 1.41308,9.1949 -2.9122,8.31303c-1.16578,-0.23769 -1.90369,-2.92066 -2.1256,-2.96324c-0.82676,0.28217 -1.77701,0.13231 -2.48824,-0.47745c-0.17283,-0.14816 -0.32097,-0.31443 -0.44404,-0.49358c-0.61235,-0.59389 -1.40404,-1.09691 -2.1152,-1.64342c1.79018,3.01094 5.15296,5.04744 7.78336,7.6479z" fill="#fdba31" stroke="none" stroke-width="0.5" stroke-linecap="butt"/><path d="M338.17739,162.42012c1.00036,-1.16685 2.75723,-1.30181 3.92408,-0.30145c1.16685,1.00036 1.30181,2.75723 0.30145,3.92408c-1.00036,1.16685 -2.75723,1.30181 -3.92408,0.30145c-1.16685,-1.00036 -1.30181,-2.75723 -0.30145,-3.92408z" fill="#ffffff" stroke="none" stroke-width="0" stroke-linecap="butt"/></g><path d="M324.68201,166.85803l-19.69221,22.96957" fill="none" stroke="#cf9727" stroke-width="4" stroke-linecap="round"/><path d="M322.25274,177.98629l-13.12813,15.31304" fill="none" stroke="#cf9727" stroke-width="4" stroke-linecap="round"/><path d="M328.85289,178.62592l-15.58816,18.18248" fill="none" stroke="#cf9727" stroke-width="4" stroke-linecap="round"/><path d="M324.36817,192.07955l-7.0205,8.18891" fill="none" stroke="#cf9727" stroke-width="4" stroke-linecap="round"/><path d="M338.92523,183.06036l-17.53921,20.45825" fill="none" stroke="#cf9727" stroke-width="4" stroke-linecap="round"/></g><path d="M341.12633,173.09992c0,-1.24264 1.00736,-2.25 2.25,-2.25c1.24264,0 2.25,1.00736 2.25,2.25c0,1.24264 -1.00736,2.25 -2.25,2.25c-1.24264,0 -2.25,-1.00736 -2.25,-2.25z" fill="#fdba31" stroke="none" stroke-width="0.5" stroke-linecap="butt"/><path d="M274.07576,180c0,-25.36326 20.56099,-45.92424 45.92424,-45.92424c25.36326,0 45.92424,20.56099 45.92424,45.92424c0,25.36326 -20.56099,45.92424 -45.92424,45.92424c-25.36326,0 -45.92424,-20.56099 -45.92424,-45.92424z" fill-opacity="0.25098" fill="#000000" stroke-opacity="0.25098" stroke="#000000" stroke-width="0" stroke-linecap="butt"/></g></g></svg>