<svg version="1.1" xmlns="http://www.w3.org/2000/svg" xmlns:xlink="http://www.w3.org/1999/xlink" width="56.625" height="56.625" viewBox="0,0,56.625,56.625"><g transform="translate(-151.6875,-291.6875)"><g data-paper-data="{&quot;isPaintingLayer&quot;:true}" fill-rule="nonzero" stroke="none" stroke-width="0" stroke-linecap="butt" stroke-linejoin="miter" stroke-miterlimit="10" stroke-dasharray="" stroke-dashoffset="0" style="mix-blend-mode: normal"><g><path d="M156.6875,320c0,-12.87514 10.43736,-23.3125 23.3125,-23.3125c12.87514,0 23.3125,10.43736 23.3125,23.3125c0,12.87514 -10.43736,23.3125 -23.3125,23.3125c-12.87514,0 -23.3125,-10.43736 -23.3125,-23.3125z" fill="#fdba31"/><path d="M174.8125,348.3125v-56.625h10.375v56.625z" fill="#fdba31"/><path d="M151.6875,314.8125h56.625l0,10.375h-56.625z" fill="#fdba31"/><path d="M152.9474,329.83181l48.86205,-28.61626l5.24316,8.95265l-48.86205,28.61626z" fill="#fdba31"/><path d="M170.16819,292.9474l28.61626,48.86205l-8.95265,5.24316l-28.61626,-48.86205z" fill="#fdba31"/><path d="M161.4031,341.96959l28.19656,-49.10544l8.99724,5.16626l-28.19656,49.10544z" fill="#fdba31"/><path d="M158.03041,301.4031l49.10544,28.19656l-5.16626,8.99724l-49.10544,-28.19656z" fill="#fdba31"/><path d="M163.6875,320c0,-9.00915 7.30335,-16.3125 16.3125,-16.3125c9.00915,0 16.3125,7.30335 16.3125,16.3125c0,9.00915 -7.30335,16.3125 -16.3125,16.3125c-9.00915,0 -16.3125,-7.30335 -16.3125,-16.3125z" fill="#ffffff"/></g></g></g></svg>