<svg version="1.1" xmlns="http://www.w3.org/2000/svg" xmlns:xlink="http://www.w3.org/1999/xlink" width="80.58574" height="73.07744" viewBox="0,0,80.58574,73.07744"><g transform="translate(-139.70713,-283.46128)"><g data-paper-data="{&quot;isPaintingLayer&quot;:true}" fill-rule="nonzero" stroke-width="0" stroke-linecap="butt" stroke-linejoin="miter" stroke-miterlimit="10" stroke-dasharray="" stroke-dashoffset="0" style="mix-blend-mode: normal"><g fill="#ffffff" stroke="#ffffff"><path d="M181.12953,323.58825c-8.95915,-9.1796 -8.95915,-24.06267 0,-33.24227c8.95915,-9.1796 23.48482,-9.1796 32.44398,0c8.95915,9.1796 8.95915,24.06267 0,33.24227c-8.95915,9.1796 -23.48482,9.1796 -32.44398,0z" data-paper-data="{&quot;index&quot;:null}"/><path d="M146.4265,323.58825c-8.95915,-9.1796 -8.95915,-24.06267 0,-33.24227c8.95915,-9.1796 23.48483,-9.1796 32.44398,0c8.95915,9.1796 8.95915,24.06267 0,33.24227c-8.95915,9.1796 -23.48483,9.1796 -32.44398,0z"/><path d="M153.66953,329.09955l34.77632,-29.10153l26.68277,21.84724l-34.74667,34.69346z" data-paper-data="{&quot;index&quot;:null}"/><path d="M179.76788,356.5166l-34.93011,-34.50573l26.56657,-21.99071l34.93012,28.91371z"/></g><g fill="#ff0000"><path d="M181.10862,323.171c-8.79336,-8.93668 -8.79336,-23.4259 0,-32.36259c8.79336,-8.93668 23.05019,-8.93668 31.84353,0c8.79336,8.93668 8.79336,23.4259 0,32.36259c-8.79336,8.93668 -23.05019,8.93668 -31.84353,0z" data-paper-data="{&quot;index&quot;:null}" stroke="#000000"/><path d="M147.04783,323.171c-8.79336,-8.93668 -8.79336,-23.4259 0,-32.36259c8.79336,-8.93668 23.0502,-8.93668 31.84354,0c8.79336,8.93668 8.79336,23.4259 0,32.36259c-8.79336,8.93668 -23.0502,8.93668 -31.84354,0z" stroke="#000000"/><path d="M154.15682,328.53645l34.13272,-28.33141l26.18895,21.2691l-34.10362,33.77537z" data-paper-data="{&quot;index&quot;:null}" stroke="none"/><path d="M179.77216,355.22795l-34.28366,-33.59261l26.0749,-21.40878l34.28367,28.14858z" stroke="none"/></g></g></g></svg>