<svg version="1.1" xmlns="http://www.w3.org/2000/svg" xmlns:xlink="http://www.w3.org/1999/xlink" width="79.68182" height="79.68182" viewBox="0,0,79.68182,79.68182"><g transform="translate(-140.15909,-280.15909)"><g data-paper-data="{&quot;isPaintingLayer&quot;:true}" fill-rule="nonzero" stroke-linecap="butt" stroke-linejoin="miter" stroke-miterlimit="10" stroke-dasharray="" stroke-dashoffset="0" style="mix-blend-mode: normal"><path d="M180,356.84091c-20.34667,0 -36.84091,-16.49424 -36.84091,-36.84091c0,-20.34667 16.49424,-36.84091 36.84091,-36.84091c20.34667,0 36.84091,16.49424 36.84091,36.84091c0,20.34667 -16.49424,36.84091 -36.84091,36.84091z" fill="#ffffff" stroke="#fdba31" stroke-width="6"/><g fill="#b0b0b0" stroke-width="0"><path d="M180.75822,326.01414c-6.01397,-6.11199 -6.01397,-16.02148 0,-22.13348c6.01397,-6.11199 15.76453,-6.11199 21.77849,0c6.01397,6.11199 6.01397,16.02148 0,22.13348c-6.01397,6.11199 -15.76453,6.11199 -21.77849,0z" data-paper-data="{&quot;index&quot;:null}" stroke="#000000"/><path d="M157.4633,326.01414c-6.01397,-6.11199 -6.01397,-16.02148 0,-22.13348c6.01397,-6.11199 15.76454,-6.11199 21.77849,0c6.01397,6.11199 6.01397,16.02148 0,22.13348c-6.01397,6.11199 -15.76454,6.11199 -21.77849,0z" stroke="#000000"/><path d="M162.32529,329.68369l23.34411,-19.37647l17.91119,14.5464l-23.32421,23.09971z" data-paper-data="{&quot;index&quot;:null}" stroke="none"/><path d="M179.84418,347.93859l-23.44734,-22.97472l17.83319,-14.64193l23.44735,19.25143z" stroke="none"/></g></g></g></svg>