<svg version="1.1" xmlns="http://www.w3.org/2000/svg" xmlns:xlink="http://www.w3.org/1999/xlink" width="107.89744" height="92.18182" viewBox="0,0,107.89744,92.18182"><g transform="translate(-118.19347,-273.9091)"><g data-paper-data="{&quot;isPaintingLayer&quot;:true}" fill-rule="nonzero" stroke-linejoin="miter" stroke-miterlimit="10" stroke-dasharray="" stroke-dashoffset="0" style="mix-blend-mode: normal"><path d="M136.90909,320.00002c0,-23.79845 19.29246,-43.09091 43.09091,-43.09091c23.79845,0 43.09091,19.29246 43.09091,43.09091c0,23.79845 -19.29246,43.09091 -43.09091,43.09091c-23.79845,0 -43.09091,-19.29246 -43.09091,-43.09091z" fill="#ffffff" stroke="#fdba31" stroke-width="6" stroke-linecap="butt"/><path d="M121.15376,283.6235l-2.96029,-1.18411" fill="none" stroke="#000000" stroke-width="NaN" stroke-linecap="round"/><text transform="translate(146.37028,335.24243) scale(1.02461,1.02461)" font-size="40" xml:space="preserve" fill="#fdba31" fill-rule="nonzero" stroke="none" stroke-width="1" stroke-linecap="butt" stroke-linejoin="miter" stroke-miterlimit="10" stroke-dasharray="" stroke-dashoffset="0" font-family="&quot;TT Neoris Trial ExtraBold&quot;, Sans Serif" font-weight="normal" text-anchor="start" style="mix-blend-mode: normal"><tspan x="0" dy="0">18+</tspan></text><path d="M134.07576,320c0,-25.36326 20.56099,-45.92424 45.92424,-45.92424c25.36326,0 45.92424,20.56099 45.92424,45.92424c0,25.36326 -20.56099,45.92424 -45.92424,45.92424c-25.36326,0 -45.92424,-20.56099 -45.92424,-45.92424z" fill-opacity="0.25098" fill="#000000" stroke-opacity="0.25098" stroke="#000000" stroke-width="0" stroke-linecap="butt"/></g></g></svg>