<svg version="1.1" xmlns="http://www.w3.org/2000/svg" xmlns:xlink="http://www.w3.org/1999/xlink" width="92.18182" height="92.18184" viewBox="0,0,92.18182,92.18184"><g transform="translate(-133.90909,-273.90909)"><g data-paper-data="{&quot;isPaintingLayer&quot;:true}" fill-rule="nonzero" stroke-linejoin="miter" stroke-miterlimit="10" stroke-dasharray="" stroke-dashoffset="0" style="mix-blend-mode: normal"><path d="M136.90909,320.00002c0,-23.79845 19.29246,-43.09091 43.09091,-43.09091c23.79845,0 43.09091,19.29246 43.09091,43.09091c0,23.79845 -19.29246,43.09091 -43.09091,43.09091c-23.79845,0 -43.09091,-19.29246 -43.09091,-43.09091z" fill="#ffffff" stroke="#fdba31" stroke-width="6" stroke-linecap="butt"/><text transform="translate(155.01531,337.38277) scale(1.35052,1.35052)" font-size="40" xml:space="preserve" fill="#fdba31" fill-rule="nonzero" stroke="none" stroke-width="1" stroke-linecap="butt" stroke-linejoin="miter" stroke-miterlimit="10" stroke-dasharray="" stroke-dashoffset="0" font-family="&quot;TT Neoris Trial ExtraBold&quot;, Sans Serif" font-weight="normal" text-anchor="start" style="mix-blend-mode: normal"><tspan x="0" dy="0">:3</tspan></text><path d="M152.87449,347.12551l54.25101,-54.25101" fill="none" stroke="#fcfcfc" stroke-width="15" stroke-linecap="round"/><path d="M152.10526,347.89474l55.78947,-55.78947" fill="none" stroke="#fdba31" stroke-width="9" stroke-linecap="round"/><path d="M136.90909,320c0,-23.79845 19.29246,-43.09091 43.09091,-43.09091c23.79845,0 43.09091,19.29246 43.09091,43.09091c0,23.79845 -19.29246,43.09091 -43.09091,43.09091c-23.79845,0 -43.09091,-19.29246 -43.09091,-43.09091z" fill="none" stroke="#fdba31" stroke-width="6" stroke-linecap="butt"/></g></g></svg>