<svg version="1.1" xmlns="http://www.w3.org/2000/svg" xmlns:xlink="http://www.w3.org/1999/xlink" width="92.18182" height="92.18182" viewBox="0,0,92.18182,92.18182"><g transform="translate(-273.90909,-133.90911)"><g data-paper-data="{&quot;isPaintingLayer&quot;:true}" fill-rule="nonzero" stroke="#fdba31" stroke-linejoin="miter" stroke-miterlimit="10" stroke-dasharray="" stroke-dashoffset="0" style="mix-blend-mode: normal"><path d="M276.90909,180.00002c0,-23.79845 19.29246,-43.09091 43.09091,-43.09091c23.79845,0 43.09091,19.29246 43.09091,43.09091c0,23.79845 -19.29246,43.09091 -43.09091,43.09091c-23.79845,0 -43.09091,-19.29246 -43.09091,-43.09091z" fill="#ffffff" stroke-width="6" stroke-linecap="butt"/><g fill="none" stroke-width="5"><path d="M290.47238,180c0,-16.30766 13.21997,-29.52762 29.52762,-29.52762c16.30766,0 29.52762,13.21997 29.52762,29.52762c0,16.30766 -13.21997,29.52762 -29.52762,29.52762c-16.30766,0 -29.52762,-13.21997 -29.52762,-29.52762z" stroke-linecap="butt"/><path d="M305.83204,180c0,-16.30765 6.34322,-29.52762 14.16796,-29.52762c7.82475,0 14.16796,13.21997 14.16796,29.52762c0,16.30765 -6.34322,29.52762 -14.16796,29.52762c-7.82475,0 -14.16796,-13.21997 -14.16796,-29.52762z" stroke-linecap="butt"/><path d="M293.2836,189.73472h53.43281" stroke-linecap="round"/><path d="M293.2836,170.26528h53.4328" stroke-linecap="round"/></g></g></g></svg>