<svg version="1.1" xmlns="http://www.w3.org/2000/svg" xmlns:xlink="http://www.w3.org/1999/xlink" width="79.68182" height="79.68182" viewBox="0,0,79.68182,79.68182"><g transform="translate(-140.15909,-280.15909)"><g data-paper-data="{&quot;isPaintingLayer&quot;:true}" fill-rule="nonzero" stroke="#fdba31" stroke-linejoin="miter" stroke-miterlimit="10" stroke-dasharray="" stroke-dashoffset="0" style="mix-blend-mode: normal"><path d="M180,356.84091c-20.34667,0 -36.84091,-16.49424 -36.84091,-36.84091c0,-20.34667 16.49424,-36.84091 36.84091,-36.84091c20.34667,0 36.84091,16.49424 36.84091,36.84091c0,20.34667 -16.49424,36.84091 -36.84091,36.84091z" fill="#ffffff" stroke-width="6" stroke-linecap="butt"/><path d="M159.37419,303.04878h41.24028" fill="none" stroke-width="5" stroke-linecap="round"/><path d="M168.96911,332.99652h31.72433" fill="none" stroke-width="5" stroke-linecap="round"/><path d="M200.69728,303.13159v29.64662" fill="none" stroke-width="5" stroke-linecap="round"/><path d="M159.29139,303.13159v29.64662" fill="none" stroke-width="5" stroke-linecap="round"/><path d="M188.57517,325.7864h-21.94007" data-paper-data="{&quot;index&quot;:null}" fill="none" stroke-width="5" stroke-linecap="round"/><path d="M183.0129,318.33333h-16.3778" data-paper-data="{&quot;index&quot;:null}" fill="none" stroke-width="5" stroke-linecap="round"/><path d="M193.3649,310.88027h-26.7298" data-paper-data="{&quot;index&quot;:null}" fill="none" stroke-width="5" stroke-linecap="round"/><path d="M159.30247,332.83667c0,0 -0.1562,7.38544 0.19081,7.64025c0.32817,0.24097 9.25188,-7.49196 9.25188,-7.49196" fill="none" stroke-width="5" stroke-linecap="round"/></g></g></svg>