<svg version="1.1" xmlns="http://www.w3.org/2000/svg" xmlns:xlink="http://www.w3.org/1999/xlink" width="92.18182" height="92.18182" viewBox="0,0,92.18182,92.18182"><g transform="translate(-133.90909,-273.90909)"><g data-paper-data="{&quot;isPaintingLayer&quot;:true}" fill-rule="nonzero" stroke-linecap="butt" stroke-linejoin="miter" stroke-miterlimit="10" stroke-dasharray="" stroke-dashoffset="0" style="mix-blend-mode: normal"><path d="M136.90909,320c0,-23.79845 19.29246,-43.09091 43.09091,-43.09091c23.79845,0 43.09091,19.29246 43.09091,43.09091c0,23.79845 -19.29246,43.09091 -43.09091,43.09091c-23.79845,0 -43.09091,-19.29246 -43.09091,-43.09091z" fill="#cccccc" stroke="#cc9527" stroke-width="6"/><path d="M156.6875,319.99996c0,-12.87514 10.43736,-23.3125 23.3125,-23.3125c12.87514,0 23.3125,10.43736 23.3125,23.3125c0,12.87514 -10.43736,23.3125 -23.3125,23.3125c-12.87514,0 -23.3125,-10.43736 -23.3125,-23.3125z" fill="#cc9527" stroke="none" stroke-width="0"/><path d="M174.8125,348.31246v-56.625h10.375v56.625z" fill="#cc9527" stroke="none" stroke-width="0"/><path d="M151.6875,314.81246h56.625v10.375h-56.625z" fill="#cc9527" stroke="none" stroke-width="0"/><path d="M152.9474,329.83176l48.86206,-28.61626l5.24316,8.95265l-48.86205,28.61626z" fill="#cc9527" stroke="none" stroke-width="0"/><path d="M170.1682,292.94735l28.61626,48.86206l-8.95265,5.24316l-28.61626,-48.86206z" fill="#cc9527" stroke="none" stroke-width="0"/><path d="M161.4031,341.96956l28.19656,-49.10545l8.99724,5.16625l-28.19656,49.10545z" fill="#cc9527" stroke="none" stroke-width="0"/><path d="M158.03041,301.40306l49.10545,28.19656l-5.16626,8.99725l-49.10544,-28.19656z" fill="#cc9527" stroke="none" stroke-width="0"/><path d="M166.33456,319.99996c0,-7.54721 6.11822,-13.66544 13.66544,-13.66544c7.54721,0 13.66544,6.11822 13.66544,13.66544c0,7.54721 -6.11822,13.66544 -13.66544,13.66544c-7.54721,0 -13.66544,-6.11822 -13.66544,-13.66544z" fill="#cccccc" stroke="none" stroke-width="0"/></g></g></svg>