<svg version="1.1" xmlns="http://www.w3.org/2000/svg" xmlns:xlink="http://www.w3.org/1999/xlink" width="189.33334" height="148.11248" viewBox="0,0,189.33334,148.11248"><g transform="translate(-85.33335,-246.5)"><g data-paper-data="{&quot;isPaintingLayer&quot;:true}" fill-rule="nonzero" stroke-linejoin="miter" stroke-miterlimit="10" stroke-dasharray="" stroke-dashoffset="0" style="mix-blend-mode: normal"><g><path d="M94.53128,383.625v-127.1875h170.625v127.1875z" fill="#152456" stroke="none" stroke-width="0" stroke-linecap="butt"/><path d="M266.1667,384.90542v-129.81083" fill="none" stroke="#fdba31" stroke-width="17" stroke-linecap="round"/><path d="M93.83336,255.09459v129.81083" fill="none" stroke="#fdba31" stroke-width="17" stroke-linecap="round"/><path d="M93.89435,255h172.21135" fill="none" stroke="#fdba31" stroke-width="17" stroke-linecap="round"/><path d="M93.89436,385h172.21135" fill="none" stroke="#fdba31" stroke-width="17" stroke-linecap="round"/></g><path d="M119.36439,336.40428c0,-14.82987 12.02198,-26.85185 26.85185,-26.85185c14.82987,0 26.85185,12.02198 26.85185,26.85185c0,14.82987 -12.02198,26.85185 -26.85185,26.85185c-14.82987,0 -26.85185,-12.02198 -26.85185,-26.85185z" fill="none" stroke="#fdba31" stroke-width="8.5" stroke-linecap="butt"/><path d="M146.21623,281.60269v23.88889" fill="none" stroke="#fdba31" stroke-width="8.5" stroke-linecap="round"/><path d="M134.04388,288.92183l12.17795,-12.17795l12.16672,12.16672" fill="none" stroke="#fdba31" stroke-width="8.5" stroke-linecap="round"/><path d="M240.63565,303.59572c0,14.82987 -12.02198,26.85185 -26.85185,26.85185c-14.82987,0 -26.85185,-12.02198 -26.85185,-26.85185c0,-14.82987 12.02198,-26.85185 26.85185,-26.85185c14.82987,0 26.85185,12.02198 26.85185,26.85185z" fill="none" stroke="#fdba31" stroke-width="8.5" stroke-linecap="butt"/><path d="M213.7838,358.39732v-23.88889" fill="none" stroke="#fdba31" stroke-width="8.5" stroke-linecap="round"/><path d="M225.95614,351.07817l-12.17795,12.17795l-12.16672,-12.16672" fill="none" stroke="#fdba31" stroke-width="8.5" stroke-linecap="round"/><text transform="translate(151.19629,389.04736) scale(0.33728,0.33728)" font-size="40" xml:space="preserve" fill="#1a2d6b" fill-rule="nonzero" stroke="none" stroke-width="1" stroke-linecap="butt" stroke-linejoin="miter" stroke-miterlimit="10" stroke-dasharray="" stroke-dashoffset="0" font-family="&quot;Gucina-Medium&quot;, Sans Serif" font-weight="normal" text-anchor="start" style="mix-blend-mode: normal"><tspan x="0" dy="0">only men</tspan></text></g></g></svg>