<svg version="1.1" xmlns="http://www.w3.org/2000/svg" xmlns:xlink="http://www.w3.org/1999/xlink" width="107.89744" height="92.18184" viewBox="0,0,107.89744,92.18184"><g transform="translate(-258.19347,-133.90909)"><g data-paper-data="{&quot;isPaintingLayer&quot;:true}" fill-rule="nonzero" stroke-linejoin="miter" stroke-miterlimit="10" stroke-dasharray="" stroke-dashoffset="0" style="mix-blend-mode: normal"><path d="M276.90909,180.00002c0,-23.79845 19.29246,-43.09091 43.09091,-43.09091c23.79845,0 43.09091,19.29246 43.09091,43.09091c0,23.79845 -19.29246,43.09091 -43.09091,43.09091c-23.79845,0 -43.09091,-19.29246 -43.09091,-43.09091z" fill="#ffffff" stroke="#fdba31" stroke-width="6" stroke-linecap="butt"/><path d="M261.15376,143.6235l-2.96029,-1.18411" fill="none" stroke="#000000" stroke-width="NaN" stroke-linecap="round"/><path d="M292.10526,207.89474l55.78947,-55.78947" fill="none" stroke="#fcfcfc" stroke-width="10" stroke-linecap="round"/><path d="M292.10526,207.89474l55.78947,-55.78947" fill="none" stroke="#fdba31" stroke-width="7" stroke-linecap="round"/><path d="M276.90909,180c0,-23.79845 19.29246,-43.09091 43.09091,-43.09091c23.79845,0 43.09091,19.29246 43.09091,43.09091c0,23.79845 -19.29246,43.09091 -43.09091,43.09091c-23.79845,0 -43.09091,-19.29246 -43.09091,-43.09091z" fill="none" stroke="#fdba31" stroke-width="6" stroke-linecap="butt"/></g></g></svg>